<svg id="Layer_2" data-name="Layer 2" xmlns="http://www.w3.org/2000/svg" viewBox="0 0 401.36 485.76"><defs><style>.cls-1,.cls-2{fill:#023ca6;}.cls-2{font-size:91px;font-family:Optima-Bold, Optima;font-weight:700;}</style></defs><path class="cls-1" d="M868.56,152.39a4.37,4.37,0,0,1,2.75,3.72,1.34,1.34,0,0,1,0,.35c-.7,2.84-9.46,37.33-13.46,46.33a518.54,518.54,0,0,1-20.5,50.5s-10.5,19.5-10,33.83a118.63,118.63,0,0,1-15,51.17s-7,14-15,24l-.06.08c-.88,1.37-24.15,37.23-33,51,0,0-10,17-23,54l0,.08c-.33.75-6,13.85-6,43,0,0,0,18-7,19,0,0-8.5,4.5-17.5-6.5,0,0-9-9-5.51-33.45a.28.28,0,0,0,0-.09V388.83a1.23,1.23,0,0,0-.39-.9L652.11,339a1.22,1.22,0,0,0-1.62,0l-57.75,48.94a1.22,1.22,0,0,0-.43.92l-1,85.28a1.06,1.06,0,0,0,0,.31c.63,2.45,8.59,34.33,0,47.81l-.05.09c-.51.7-7.28,9.84-15,6.95,0,0-7,3-18-44,0,0-14-54.87-16-73.93a.5.5,0,0,0,0-.12,22.44,22.44,0,0,1,3-15.91.25.25,0,0,0,0-.07l28.49-56.47c.62-1.24,21.08-50.09,24.78-60.42a1.22,1.22,0,0,0-2.17-1.07c-3.61,9.49-23.61,51.49-26.61,59.49,0,0-25.94,53.42-25.94,53.42a1.22,1.22,0,0,1-1.73.47c-2.65-1.68-8.58-7.31-3.85-22.34l0-.09s30.44-84.37,30.49-84.46c1-2,10-36,17.5-44.5,0,0,5-6,18-7,0,0-14-1-20,7a84.53,84.53,0,0,0-11.5,20.5L543.68,348.2a1.21,1.21,0,0,1-1.49.79c-5.45-1.57-28.25-9.71-15.87-32.7,0,0,11.58-20.17,26.26-35.94a1.22,1.22,0,0,0-1.73-1.72c-.28.27-4.54,5.54-4.79,5.8a1.2,1.2,0,0,1-1.68.1c-3.45-3-14.49-14.5.9-28.21l.07-.05c1-.81,25.94-20.52,72.92-46.95l.09,0c1-.46,18.53-8.3,69.91-19l.09,0c1.9-.56,63-18,69.46-36.49.17-.48,1-1.5,3-1.5H868.08A1.12,1.12,0,0,1,868.56,152.39Z" transform="translate(-469.95 -152.29)"/><text class="cls-2" transform="translate(0 461.37)">SMÁHÚS</text></svg>